<svg width="983" height="464" viewBox="0 0 983 464" fill="none" xmlns="http://www.w3.org/2000/svg">
<path d="M573.303 330.457C575.397 302.922 554.773 278.903 527.238 276.81L429.673 269.391C402.138 267.297 378.119 287.921 376.025 315.456L368.716 411.583L565.994 426.584L573.303 330.457Z" fill="#FF8E40"/>
<path d="M508.21 242.677L466.236 239.486L463.571 274.525C462.943 282.785 469.13 289.991 477.391 290.619L489.451 291.536C497.712 292.164 504.917 285.977 505.545 277.716L508.21 242.677Z" fill="#4D2C1F"/>
<path d="M549.936 156.594L438.005 148.083L434.658 192.109C432.307 223.018 455.459 249.98 486.367 252.331V252.331C517.276 254.681 544.238 231.53 546.588 200.621L549.936 156.594Z" fill="#4D2C1F"/>
<ellipse rx="28.0635" ry="25.0702" transform="matrix(-0.997121 -0.0758214 -0.0758214 0.997121 430.583 106.259)" fill="black"/>
<ellipse rx="28.0635" ry="25.0702" transform="matrix(-0.997121 -0.0758214 -0.0758214 0.997121 544.581 136.991)" fill="black"/>
<ellipse rx="28" ry="25" transform="matrix(-0.997121 -0.0758214 -0.0758214 0.997121 546.419 111.988)" fill="black"/>
<ellipse rx="28.0635" ry="25.0702" transform="matrix(-0.997121 -0.0758214 -0.0758214 0.997121 521.533 148.276)" fill="black"/>
<ellipse rx="28.0635" ry="25.0702" transform="matrix(-0.997121 -0.0758214 -0.0758214 0.997121 527.433 85.543)" fill="black"/>
<ellipse rx="28.0635" ry="25.0702" transform="matrix(-0.997121 -0.0758214 -0.0758214 0.997121 501.618 121.69)" fill="black"/>
<ellipse rx="28.0635" ry="25.0702" transform="matrix(-0.997121 -0.0758214 -0.0758214 0.997121 487.888 89.5562)" fill="black"/>
<ellipse rx="28.0635" ry="25.0702" transform="matrix(-0.997121 -0.0758214 -0.0758214 0.997121 454.415 82.9994)" fill="black"/>
<ellipse rx="28.0635" ry="25.0702" transform="matrix(-0.997121 -0.0758214 -0.0758214 0.997121 471.677 144.485)" fill="black"/>
<ellipse rx="28.0635" ry="25.0702" transform="matrix(-0.997121 -0.0758214 -0.0758214 0.997121 458.604 105.381)" fill="black"/>
<ellipse rx="28.0635" ry="25.0702" transform="matrix(-0.997121 -0.0758214 -0.0758214 0.997121 438.659 131.946)" fill="black"/>
<ellipse rx="35" ry="31.2669" transform="matrix(-0.970065 0.242846 0.242846 0.970065 433.056 59.862)" fill="black"/>
<ellipse rx="10" ry="8.93339" transform="matrix(-0.970065 0.242846 0.242846 0.970065 407.514 73.1287)" fill="black"/>
<ellipse rx="10" ry="8.93339" transform="matrix(-0.970065 0.242846 0.242846 0.970065 401.688 58.0933)" fill="black"/>
<ellipse rx="10" ry="8.93339" transform="matrix(-0.970065 0.242846 0.242846 0.970065 406.291 43.5397)" fill="black"/>
<ellipse rx="10" ry="8.93339" transform="matrix(-0.970065 0.242846 0.242846 0.970065 417.687 31.4092)" fill="black"/>
<ellipse rx="10" ry="8.93339" transform="matrix(-0.970065 0.242846 0.242846 0.970065 433.209 31.6468)" fill="black"/>
<ellipse rx="10" ry="8.93339" transform="matrix(-0.970065 0.242846 0.242846 0.970065 448.246 29.9443)" fill="black"/>
<ellipse rx="10" ry="8.93339" transform="matrix(-0.970065 0.242846 0.242846 0.970065 456.98 40.128)" fill="black"/>
<ellipse rx="10" ry="8.93339" transform="matrix(-0.970065 0.242846 0.242846 0.970065 460.623 54.6789)" fill="black"/>
<path d="M411.245 88.5288C411.245 88.5288 411.282 94.875 440.549 84.5973C469.817 74.3195 467.829 68.6585 467.829 68.6585" stroke="#3D4A99" stroke-width="10" stroke-linecap="round"/>
<ellipse rx="35" ry="31.2669" transform="matrix(-0.769805 -0.638279 -0.638279 0.769805 557.224 69.1012)" fill="black"/>
<ellipse rx="10" ry="8.93339" transform="matrix(-0.769805 -0.638279 -0.638279 0.769805 531.415 56.3613)" fill="black"/>
<ellipse rx="10" ry="8.93339" transform="matrix(-0.769805 -0.638279 -0.638279 0.769805 540.088 42.7678)" fill="black"/>
<ellipse rx="10" ry="8.93339" transform="matrix(-0.769805 -0.638279 -0.638279 0.769805 554.544 37.8666)" fill="black"/>
<ellipse rx="10" ry="8.93339" transform="matrix(-0.769805 -0.638279 -0.638279 0.769805 571.065 39.8743)" fill="black"/>
<ellipse rx="10" ry="8.93339" transform="matrix(-0.769805 -0.638279 -0.638279 0.769805 580.059 52.5277)" fill="black"/>
<ellipse rx="10" ry="8.93339" transform="matrix(-0.769805 -0.638279 -0.638279 0.769805 590.33 63.6415)" fill="black"/>
<ellipse rx="10" ry="8.93339" transform="matrix(-0.769805 -0.638279 -0.638279 0.769805 587.289 76.7088)" fill="black"/>
<ellipse rx="10" ry="8.93339" transform="matrix(-0.769805 -0.638279 -0.638279 0.769805 577.715 88.2559)" fill="black"/>
<path d="M521.208 68.4822C521.208 68.4822 516.114 72.2673 541.719 89.7785C567.323 107.29 570.71 102.337 570.71 102.337" stroke="#3D4A99" stroke-width="10" stroke-linecap="round"/>
<rect width="107.047" height="125.471" rx="5" transform="matrix(-0.999998 0.00210429 0.0217272 0.999764 503.968 297.303)" fill="#838383"/>
<path d="M484.803 222.421C510.684 231.846 515.55 222.113 515.169 213.56" stroke="#FF8E40" stroke-width="3"/>
<path d="M457.999 346.17L465.114 352.698L456.81 362.77L447.49 371.909L440.375 365.381L448.678 355.31L457.999 346.17Z" fill="#142ECC"/>
<path d="M439.448 358.848C439.08 358.433 446.966 358.417 446.966 358.417C446.966 358.417 443.569 362.133 443.326 362.393C443.083 362.653 442.317 360.514 442.317 360.514C442.317 360.514 439.816 359.263 439.448 358.848Z" fill="#CC4514"/>
<path d="M454.325 372.081C454.77 372.413 454.107 364.554 454.107 364.554C454.107 364.554 450.697 368.259 450.459 368.523C450.221 368.788 452.419 369.366 452.419 369.366C452.419 369.366 453.88 371.75 454.325 372.081Z" fill="#CC4514"/>
<circle cx="457.453" cy="353.906" r="2.75879" transform="rotate(42.5333 457.453 353.906)" fill="white"/>
<circle cx="452.604" cy="359.192" r="2.06909" transform="rotate(42.5333 452.604 359.192)" fill="white"/>
<path d="M443.168 373.559L439.247 369.963L440.375 365.381L447.49 371.909L443.168 373.559Z" fill="#CC4514"/>
<path d="M465.114 352.698L457.999 346.17C457.999 346.17 460.585 344.513 463.016 343.66C464.422 343.166 465.43 342.505 466.753 343.718C468.075 344.932 467.444 345.938 467.082 347.39C466.456 349.899 465.114 352.698 465.114 352.698Z" fill="#CC4514"/>
<path d="M455.327 352.143C455.327 352.143 453.615 354.316 455.639 355.986C457.664 357.656 459.394 355.874 459.394 355.874" stroke="black" stroke-width="2" stroke-linecap="round"/>
<path d="M451.08 357.793C451.08 357.793 449.796 359.423 451.314 360.675C452.832 361.927 454.129 360.591 454.129 360.591" stroke="black" stroke-width="2" stroke-linecap="round"/>
<path d="M436.523 376.823C434.837 377.335 439.228 369.899 439.228 369.899L443.189 373.533C443.189 373.533 438.21 376.311 436.523 376.823Z" fill="#FF8E40"/>
<path d="M438.443 374.697C437.462 374.995 440.017 370.669 440.017 370.669L442.321 372.783C442.321 372.783 439.424 374.399 438.443 374.697Z" fill="#CC4514"/>
<circle cx="489.685" cy="310.759" r="5.5" transform="rotate(4.34842 489.685 310.759)" fill="black"/>
<path d="M531.657 332.504L526.453 425.066" stroke="#00AAFF" stroke-width="2"/>
<path d="M179.051 169.658C179.518 131.829 149.231 100.784 111.402 100.316V100.316C73.5738 99.8487 42.5286 130.136 42.061 167.964L40.2503 314.453L177.24 316.147L179.051 169.658Z" fill="black"/>
<path d="M14.3148 359.937C14.6561 332.325 37.3168 310.218 64.9289 310.559L162.769 311.768C190.381 312.11 212.488 334.77 212.147 362.383L211.171 441.312L102.822 449.891L13.3391 438.867L14.3148 359.937Z" fill="#3D4A99"/>
<path d="M86.8918 278.237L128.984 278.757L128.55 313.895C128.447 322.178 121.649 328.811 113.365 328.708L101.271 328.559C92.9873 328.456 86.3551 321.658 86.4575 313.374L86.8918 278.237Z" fill="#CFA08C"/>
<path d="M52.9153 188.811L165.161 190.198L164.615 234.349C164.232 265.344 138.794 290.161 107.798 289.778V289.778C76.8028 289.394 51.9864 263.957 52.3696 232.961L52.9153 188.811Z" fill="#CFA08C"/>
<rect width="140.21" height="125.471" rx="5" transform="matrix(0.99592 0.0902356 -0.109762 0.993958 112.361 323.471)" fill="#838383"/>
<rect x="0.755798" y="435.126" width="238.54" height="25.0702" rx="5" transform="rotate(0.708178 0.755798 435.126)" fill="#838383"/>
<path d="M141.508 205.795C142.153 202.086 127.237 200.498 126.601 204.153" stroke="black" stroke-width="2"/>
<path d="M92.678 204.313C92.8219 200.551 77.8267 200.969 77.6849 204.676" stroke="black" stroke-width="2"/>
<path d="M196.242 367.578L209.266 381.836L190.948 400.438L170.769 417.002L157.744 402.744L176.063 384.142L196.242 367.578Z" fill="#142ECC"/>
<path d="M157.05 389.564C156.39 388.672 172.104 390.032 172.104 390.032C172.104 390.032 164.681 396.836 164.151 397.311C163.621 397.786 162.473 393.388 162.473 393.388C162.473 393.388 157.711 390.456 157.05 389.564Z" fill="#CC4514"/>
<path d="M184.355 418.551C185.184 419.289 185.248 403.517 185.248 403.517C185.248 403.517 177.802 410.295 177.281 410.78C176.76 411.265 181.036 412.805 181.036 412.805C181.036 412.805 183.527 417.813 184.355 418.551Z" fill="#CC4514"/>
<circle cx="193.792" cy="382.894" r="5.51757" transform="rotate(47.5899 193.792 382.894)" fill="white"/>
<circle cx="183.2" cy="392.569" r="4.13818" transform="rotate(47.5899 183.2 392.569)" fill="white"/>
<path d="M161.867 419.528L154.69 411.672L157.744 402.744L170.769 417.002L161.867 419.528Z" fill="#CC4514"/>
<path d="M209.266 381.836L196.242 367.578C196.242 367.578 201.686 364.732 206.68 363.461C209.569 362.725 211.693 361.586 214.114 364.236C216.535 366.887 215.1 368.781 214.122 371.609C212.433 376.497 209.266 381.836 209.266 381.836Z" fill="#CC4514"/>
<path d="M189.866 379.005C189.866 379.005 186.072 383.033 189.811 386.717C193.55 390.401 197.31 387.155 197.31 387.155" stroke="black" stroke-width="3" stroke-linecap="round"/>
<path d="M180.409 389.514C180.409 389.514 177.565 392.534 180.368 395.296C183.171 398.058 185.991 395.624 185.991 395.624" stroke="black" stroke-width="3" stroke-linecap="round"/>
<path d="M148.054 424.86C144.604 425.582 154.664 411.541 154.664 411.541L161.915 419.479C161.915 419.479 151.504 424.137 148.054 424.86Z" fill="#FF8E40"/>
<path d="M152.254 420.962C150.247 421.382 156.099 413.214 156.099 413.214L160.317 417.832C160.317 417.832 154.261 420.541 152.254 420.962Z" fill="#CC4514"/>
<line y1="-1" x2="70.709" y2="-1" transform="matrix(-0.00567332 0.999984 0.999984 0.00567332 54.6188 365.635)" stroke="#00AAFF" stroke-width="2"/>
<rect x="814.488" y="75.9992" width="137" height="215" rx="68.5" transform="rotate(1.51885 814.488 75.9992)" fill="black"/>
<path d="M959.528 327.963C959.977 316.926 951.393 307.616 940.357 307.167L782.64 300.759C771.603 300.311 762.293 308.894 761.844 319.931L757.567 425.195L955.251 433.227L959.528 327.963Z" fill="#142ECC"/>
<path d="M890.161 272.51L848.1 270.801L846.674 305.912C846.337 314.19 852.775 321.172 861.052 321.509L873.138 322C881.415 322.336 888.398 315.898 888.734 307.621L890.161 272.51Z" fill="#94583F"/>
<path d="M928.824 185.008L816.663 180.451L814.87 224.568C813.612 255.541 837.7 281.669 868.672 282.927V282.927C899.645 284.186 925.773 260.098 927.032 229.125L928.824 185.008Z" fill="#94583F"/>
<rect width="140.21" height="125.471" rx="5" transform="matrix(-0.999301 0.0373813 0.0569837 0.998375 862.332 316.332)" fill="#838383"/>
<rect width="238.54" height="25.0702" rx="5" transform="matrix(-0.999176 -0.0405973 -0.0405973 0.999176 967.87 433.74)" fill="#838383"/>
<path d="M837.354 248.681C836.546 259.85 876.545 261.202 877.341 250.196" stroke="#CC4514" stroke-width="3"/>
<path d="M783.01 357.228L769.249 370.777L786.557 390.322L805.83 407.932L819.591 394.383L802.283 374.838L783.01 357.228Z" fill="#142ECC"/>
<path d="M820.982 381.259C821.689 380.403 805.925 380.929 805.925 380.929C805.925 380.929 812.978 388.116 813.482 388.619C813.986 389.121 815.365 384.79 815.365 384.79C815.365 384.79 820.275 382.114 820.982 381.259Z" fill="#CC4514"/>
<path d="M792.181 408.759C791.315 409.452 792.085 393.699 792.085 393.699C792.085 393.699 799.162 400.862 799.657 401.374C800.152 401.886 795.8 403.197 795.8 403.197C795.8 403.197 793.048 408.066 792.181 408.759Z" fill="#CC4514"/>
<circle r="5.51757" transform="matrix(-0.712577 0.701594 0.701594 0.712577 784.646 372.652)" fill="white"/>
<circle r="4.13818" transform="matrix(-0.712577 0.701594 0.701594 0.712577 794.71 382.875)" fill="white"/>
<path d="M814.586 410.926L822.168 403.46L819.591 394.383L805.83 407.932L814.586 410.926Z" fill="#CC4514"/>
<path d="M769.249 370.777L783.01 357.228C783.01 357.228 777.724 354.099 772.804 352.564C769.959 351.677 767.898 350.426 765.34 352.945C762.781 355.464 764.115 357.431 764.941 360.307C766.369 365.278 769.249 370.777 769.249 370.777Z" fill="#CC4514"/>
<path d="M788.772 368.977C788.772 368.977 792.347 373.2 788.418 376.681C784.49 380.162 780.906 376.721 780.906 376.721" stroke="black" stroke-width="3" stroke-linecap="round"/>
<path d="M797.659 379.972C797.659 379.972 800.34 383.138 797.394 385.748C794.448 388.358 791.762 385.778 791.762 385.778" stroke="black" stroke-width="3" stroke-linecap="round"/>
<path d="M828.097 416.981C831.504 417.885 822.201 403.331 822.201 403.331L814.54 410.874C814.54 410.874 824.69 416.077 828.097 416.981Z" fill="#FF8E40"/>
<path d="M824.11 412.866C826.091 413.392 820.68 404.926 820.68 404.926L816.223 409.314C816.223 409.314 822.128 412.34 824.11 412.866Z" fill="#CC4514"/>
<line y1="-1" x2="70" y2="-1" transform="matrix(-0.0405973 0.999176 0.999176 0.0405973 917.761 361.494)" stroke="#00AAFF" stroke-width="2"/>
<path d="M918.493 208.575C918.358 205.514 921.936 204.852 923.357 207.567L923.54 207.918C924.539 209.828 927.171 210.085 928.521 208.404V208.404C930.351 206.125 934.003 207.549 933.785 210.463C933.302 216.918 932.64 224.884 932.098 228.206C931.286 233.185 926.14 234.879 924.408 235.312C924.035 235.406 923.649 235.372 923.285 235.249V235.249C920.759 234.393 921.446 229.885 924.042 229.275C927.617 228.434 929.373 226.934 925.451 224.274C920.235 220.737 918.736 214.101 918.493 208.575Z" fill="white"/>
<path d="M816.46 200.64C816.411 199.268 814.674 199.122 814.331 200.452V200.452C814.023 201.643 812.35 201.69 811.949 200.527V200.527C811.472 199.142 809.417 199.504 809.509 200.966C809.907 207.27 810.43 215.088 810.771 218.408C811.217 222.757 813.129 225.507 814.141 226.685C814.519 227.126 815.107 227.29 815.68 227.189V227.189C817.526 226.864 817.959 224.16 816.451 223.046C813.731 221.035 811.397 218.402 813.729 216.272C816.387 213.844 816.662 206.275 816.46 200.64Z" fill="white"/>
</svg>
