<svg width="300" height="262" viewBox="0 0 300 262" fill="none" xmlns="http://www.w3.org/2000/svg">
<path d="M292.047 237.417C292.047 213.849 272.942 194.743 249.374 194.743C225.806 194.743 206.7 213.849 206.7 237.417V257.899H292.047V237.417Z" fill="#FF8E40"/>
<path d="M261.177 180.684H243.018V193.234C243.018 198.249 247.083 202.314 252.098 202.314C257.112 202.314 261.177 198.249 261.177 193.234V180.684Z" fill="#4D2C1F"/>
<path d="M276.31 142.292H227.886V161.339C227.886 174.711 238.726 185.551 252.098 185.551C265.47 185.551 276.31 174.711 276.31 161.339V142.292Z" fill="#4D2C1F"/>
<ellipse rx="12.106" ry="10.8147" transform="matrix(-1 0 0 1 223.325 124.545)" fill="black"/>
<ellipse rx="12.106" ry="10.8147" transform="matrix(-1 0 0 1 273.365 134.035)" fill="black"/>
<ellipse rx="12.0786" ry="10.7844" transform="matrix(-1 0 0 1 273.338 123.22)" fill="black"/>
<ellipse rx="12.106" ry="10.8147" transform="matrix(-1 0 0 1 263.82 139.643)" fill="black"/>
<ellipse rx="12.106" ry="10.8147" transform="matrix(-1 0 0 1 264.306 112.466)" fill="black"/>
<ellipse rx="12.106" ry="10.8147" transform="matrix(-1 0 0 1 254.384 128.859)" fill="black"/>
<ellipse rx="12.106" ry="10.8147" transform="matrix(-1 0 0 1 247.428 115.486)" fill="black"/>
<ellipse rx="12.106" ry="10.8147" transform="matrix(-1 0 0 1 232.816 113.76)" fill="black"/>
<ellipse rx="12.106" ry="10.8147" transform="matrix(-1 0 0 1 242.251 139.643)" fill="black"/>
<ellipse rx="12.106" ry="10.8147" transform="matrix(-1 0 0 1 235.349 123.251)" fill="black"/>
<ellipse rx="12.106" ry="10.8147" transform="matrix(-1 0 0 1 227.639 135.329)" fill="black"/>
<ellipse rx="15.0982" ry="13.4878" transform="matrix(-0.948859 0.315699 0.315699 0.948859 222.872 104.507)" fill="black"/>
<ellipse rx="4.31378" ry="3.85367" transform="matrix(-0.948859 0.315699 0.315699 0.948859 212.318 111.049)" fill="black"/>
<ellipse rx="4.31378" ry="3.85367" transform="matrix(-0.948859 0.315699 0.315699 0.948859 209.321 104.772)" fill="black"/>
<ellipse rx="4.31378" ry="3.85367" transform="matrix(-0.948859 0.315699 0.315699 0.948859 210.825 98.3614)" fill="black"/>
<ellipse rx="4.31378" ry="3.85367" transform="matrix(-0.948859 0.315699 0.315699 0.948859 215.33 92.771)" fill="black"/>
<ellipse rx="4.31378" ry="3.85367" transform="matrix(-0.948859 0.315699 0.315699 0.948859 222.014 92.3654)" fill="black"/>
<ellipse rx="4.31378" ry="3.85367" transform="matrix(-0.948859 0.315699 0.315699 0.948859 228.426 91.1413)" fill="black"/>
<ellipse rx="4.31378" ry="3.85367" transform="matrix(-0.948859 0.315699 0.315699 0.948859 232.517 95.236)" fill="black"/>
<ellipse rx="4.31378" ry="3.85367" transform="matrix(-0.948859 0.315699 0.315699 0.948859 234.559 101.376)" fill="black"/>
<path d="M214.427 117.551C214.427 117.551 214.651 120.279 226.904 114.901C239.156 109.523 238.116 107.153 238.116 107.153" stroke="#3D4A99" stroke-width="10" stroke-linecap="round"/>
<ellipse rx="15.0982" ry="13.4878" transform="matrix(-0.815984 -0.578074 -0.578074 0.815984 276.583 104.42)" fill="black"/>
<ellipse rx="4.31378" ry="3.85367" transform="matrix(-0.815984 -0.578074 -0.578074 0.815984 265.065 99.7839)" fill="black"/>
<ellipse rx="4.31378" ry="3.85367" transform="matrix(-0.815984 -0.578074 -0.578074 0.815984 268.35 93.6532)" fill="black"/>
<ellipse rx="4.31378" ry="3.85367" transform="matrix(-0.815984 -0.578074 -0.578074 0.815984 274.408 91.0722)" fill="black"/>
<ellipse rx="4.31378" ry="3.85367" transform="matrix(-0.815984 -0.578074 -0.578074 0.815984 281.58 91.3954)" fill="black"/>
<ellipse rx="4.31378" ry="3.85367" transform="matrix(-0.815984 -0.578074 -0.578074 0.815984 285.863 96.5439)" fill="black"/>
<ellipse rx="4.31378" ry="3.85367" transform="matrix(-0.815984 -0.578074 -0.578074 0.815984 290.644 100.988)" fill="black"/>
<ellipse rx="4.31378" ry="3.85367" transform="matrix(-0.815984 -0.578074 -0.578074 0.815984 289.764 106.709)" fill="black"/>
<ellipse rx="4.31378" ry="3.85367" transform="matrix(-0.815984 -0.578074 -0.578074 0.815984 286.023 111.989)" fill="black"/>
<path d="M261.071 105.331C261.071 105.331 259.004 107.126 270.59 113.821C282.176 120.516 283.471 118.275 283.471 118.275" stroke="#3D4A99" stroke-width="10" stroke-linecap="round"/>
<rect width="46.1778" height="54.1256" rx="5" transform="matrix(-0.99696 0.0779194 0.0974681 0.995239 261.139 204.32)" fill="#838383"/>
<path d="M250.446 172.737C261.887 175.944 263.662 171.598 263.218 167.932" stroke="#FF8E40" stroke-width="3"/>
<path d="M236.896 226.518L233.596 230.042L238.118 234.748L243.111 238.952L246.411 235.427L241.889 230.721L236.896 226.518Z" fill="#142ECC"/>
<path d="M246.625 232.135C246.793 231.914 242.861 232.205 242.861 232.205C242.861 232.205 244.695 233.929 244.826 234.05C244.957 234.17 245.258 233.074 245.258 233.074C245.258 233.074 246.457 232.356 246.625 232.135Z" fill="#CC4514"/>
<path d="M239.71 239.297C239.501 239.479 239.533 235.536 239.533 235.536C239.533 235.536 241.374 237.253 241.502 237.376C241.631 237.499 240.557 237.871 240.557 237.871C240.557 237.871 239.919 239.115 239.71 239.297Z" fill="#CC4514"/>
<circle r="1.37939" transform="matrix(-0.683507 0.729944 0.729944 0.683507 237.461 230.354)" fill="white"/>
<circle r="1.03455" transform="matrix(-0.683507 0.729944 0.729944 0.683507 240.079 232.805)" fill="white"/>
<path d="M245.329 239.611L247.147 237.669L246.411 235.427L243.111 238.952L245.329 239.611Z" fill="#CC4514"/>
<path d="M233.596 230.042L236.896 226.518C236.896 226.518 235.544 225.79 234.299 225.456C233.58 225.264 233.052 224.972 232.439 225.627C231.825 226.282 232.178 226.76 232.414 227.47C232.821 228.697 233.596 230.042 233.596 230.042Z" fill="#CC4514"/>
<path d="M238.455 229.394C238.455 229.394 239.39 230.413 238.444 231.322C237.498 232.231 236.568 231.408 236.568 231.408" stroke="black" stroke-linecap="round"/>
<path d="M240.786 232.05C240.786 232.05 241.488 232.814 240.779 233.496C240.069 234.178 239.372 233.561 239.372 233.561" stroke="black" stroke-linecap="round"/>
<path d="M248.765 240.986C249.625 241.177 247.154 237.636 247.154 237.636L245.317 239.598C245.317 239.598 247.905 240.795 248.765 240.986Z" fill="#FF8E40"/>
<path d="M247.727 239.999C248.228 240.11 246.79 238.05 246.79 238.05L245.721 239.191C245.721 239.191 247.227 239.887 247.727 239.999Z" fill="#CC4514"/>
<circle cx="255.436" cy="210.575" r="2.37258" fill="black"/>
<path d="M274.201 218.555L274.99 258.539" stroke="#00AAFF" stroke-width="2"/>
<path d="M75.4912 114.65C75.4912 98.3303 62.2615 85.1006 45.9418 85.1006C29.6222 85.1006 16.3925 98.3303 16.3925 114.65L16.3925 177.847L75.4912 177.847L75.4912 114.65Z" fill="black"/>
<path d="M5.44763 218.709C5.44763 195.141 24.5532 176.036 48.1211 176.036C71.6891 176.036 90.7946 195.141 90.7946 218.709L90.7946 231.656L44.1046 235.934L5.44763 231.656L5.44763 218.709Z" fill="#3D4A99"/>
<path d="M36.3177 161.976H54.4767L54.4767 174.526C54.4767 179.541 50.4117 183.606 45.3972 183.606C40.3828 183.606 36.3177 179.541 36.3177 174.526L36.3177 161.976Z" fill="#CFA08C"/>
<path d="M21.1854 123.584L69.6093 123.584L69.6093 142.631C69.6093 156.003 58.7692 166.843 45.3973 166.843C32.0255 166.843 21.1854 156.003 21.1854 142.631L21.1854 123.584Z" fill="#CFA08C"/>
<rect width="60.4833" height="54.1256" rx="5" transform="matrix(0.99696 0.0779194 -0.0974681 0.995239 47.5449 181.352)" fill="#838383"/>
<rect y="230.109" width="102.901" height="10.8147" rx="5" fill="#838383"/>
<path d="M59.4902 130.438C59.7486 128.834 53.3059 128.229 53.0513 129.809" stroke="black" stroke-width="2"/>
<path d="M38.4195 130.059C38.4616 128.436 31.9957 128.696 31.9543 130.295" stroke="black" stroke-width="2"/>
<path d="M82.3811 202.075L87.331 207.361L80.5483 214.42L73.0585 220.725L68.1086 215.439L74.8913 208.379L82.3811 202.075Z" fill="#142ECC"/>
<path d="M67.7874 210.5C67.5357 210.169 73.4342 210.606 73.4342 210.606C73.4342 210.606 70.6823 213.192 70.4857 213.372C70.2892 213.553 69.8385 211.909 69.8385 211.909C69.8385 211.909 68.0392 210.832 67.7874 210.5Z" fill="#CC4514"/>
<path d="M78.1604 221.243C78.4745 221.516 78.4256 215.601 78.4256 215.601C78.4256 215.601 75.665 218.178 75.4718 218.362C75.2785 218.546 76.8892 219.104 76.8892 219.104C76.8892 219.104 77.8462 220.97 78.1604 221.243Z" fill="#CC4514"/>
<circle cx="81.5334" cy="207.829" r="2.06909" transform="rotate(46.8817 81.5334 207.829)" fill="white"/>
<circle cx="77.6067" cy="211.506" r="1.55182" transform="rotate(46.8817 77.6067 211.506)" fill="white"/>
<path d="M69.7323 221.714L67.0048 218.801L68.1086 215.439L73.0584 220.725L69.7323 221.714Z" fill="#CC4514"/>
<path d="M87.3308 207.361L82.3811 202.075C82.3811 202.075 84.4093 200.982 86.2759 200.482C87.3557 200.193 88.1468 199.756 89.067 200.739C89.9873 201.721 89.4578 202.438 89.1044 203.503C88.4935 205.344 87.3308 207.361 87.3308 207.361Z" fill="#CC4514"/>
<path d="M80.0432 206.389C80.0432 206.389 78.6394 207.917 80.0584 209.281C81.4775 210.645 82.8726 209.41 82.8726 209.41" stroke="black" stroke-linecap="round"/>
<path d="M76.5459 210.373C76.5459 210.373 75.4934 211.519 76.5573 212.542C77.6213 213.564 78.6673 212.639 78.6673 212.639" stroke="black" stroke-linecap="round"/>
<path d="M64.5777 223.777C63.2874 224.064 66.9945 218.752 66.9945 218.752L69.7502 221.695C69.7502 221.695 65.868 223.49 64.5777 223.777Z" fill="#FF8E40"/>
<path d="M66.1344 222.296C65.3838 222.463 67.5403 219.373 67.5403 219.373L69.1433 221.085C69.1433 221.085 66.885 222.129 66.1344 222.296Z" fill="#CC4514"/>
<line y1="-1" x2="30.5023" y2="-1" transform="matrix(0.00668664 0.999978 0.999978 -0.00668664 22.8632 199.847)" stroke="#00AAFF" stroke-width="2"/>
<rect x="134.156" y="0.833244" width="59.0988" height="92.7462" rx="29.5494" transform="rotate(-0.807851 134.156 0.833244)" fill="black"/>
<path d="M201.085 118.268C201.085 107.222 192.131 98.2676 181.085 98.2676L135.738 98.2676C124.692 98.2676 115.738 107.222 115.738 118.268L115.738 152.341L201.085 152.341L201.085 118.268Z" fill="#142ECC"/>
<path d="M170.215 84.2084L152.056 84.2084V96.7583C152.056 101.773 156.121 105.838 161.135 105.838C166.15 105.838 170.215 101.773 170.215 96.7583V84.2084Z" fill="#94583F"/>
<path d="M185.347 45.8161L136.923 45.8161V64.8631C136.923 78.2349 147.763 89.075 161.135 89.075C174.507 89.075 185.347 78.2349 185.347 64.8631V45.8161Z" fill="#94583F"/>
<rect width="60.4833" height="54.1256" rx="5" transform="matrix(-0.99696 0.0779194 0.0974681 0.995239 158.988 103.584)" fill="#838383"/>
<rect width="102.901" height="10.8147" rx="5" transform="matrix(-1 0 0 1 206.532 152.341)" fill="#838383"/>
<path d="M147.037 74.8623C146.884 79.6907 164.148 79.5732 164.298 74.8151" stroke="#CC4514" stroke-width="3"/>
<path d="M125.151 124.306L120.202 129.593L126.984 136.652L134.474 142.957L139.424 137.671L132.641 130.611L125.151 124.306Z" fill="#142ECC"/>
<path d="M139.745 132.732C139.997 132.401 134.098 132.838 134.098 132.838C134.098 132.838 136.85 135.424 137.047 135.604C137.243 135.785 137.694 134.141 137.694 134.141C137.694 134.141 139.493 133.064 139.745 132.732Z" fill="#CC4514"/>
<path d="M129.372 143.475C129.058 143.748 129.107 137.833 129.107 137.833C129.107 137.833 131.868 140.41 132.061 140.594C132.254 140.778 130.644 141.336 130.644 141.336C130.644 141.336 129.686 143.202 129.372 143.475Z" fill="#CC4514"/>
<circle r="2.06909" transform="matrix(-0.683507 0.729944 0.729944 0.683507 125.999 130.061)" fill="white"/>
<circle r="1.55182" transform="matrix(-0.683507 0.729944 0.729944 0.683507 129.926 133.738)" fill="white"/>
<path d="M137.8 143.946L140.528 141.033L139.424 137.671L134.474 142.957L137.8 143.946Z" fill="#CC4514"/>
<path d="M120.202 129.592L125.151 124.306C125.151 124.306 123.123 123.214 121.257 122.714C120.177 122.425 119.386 121.988 118.465 122.971C117.545 123.953 118.075 124.67 118.428 125.735C119.039 127.576 120.202 129.592 120.202 129.592Z" fill="#CC4514"/>
<path d="M127.489 128.621C127.489 128.621 128.893 130.149 127.474 131.513C126.055 132.877 124.66 131.642 124.66 131.642" stroke="black" stroke-linecap="round"/>
<path d="M130.987 132.605C130.987 132.605 132.039 133.751 130.975 134.773C129.911 135.796 128.865 134.871 128.865 134.871" stroke="black" stroke-linecap="round"/>
<path d="M142.955 146.009C144.245 146.296 140.538 140.984 140.538 140.984L137.782 143.927C137.782 143.927 141.665 145.722 142.955 146.009Z" fill="#FF8E40"/>
<path d="M141.398 144.528C142.149 144.695 139.992 141.605 139.992 141.605L138.389 143.317C138.389 143.317 140.648 144.361 141.398 144.528Z" fill="#CC4514"/>
<line y1="-1" x2="30.1964" y2="-1" transform="matrix(2.76789e-09 1 1 -2.76789e-09 183.67 122.079)" stroke="#00AAFF" stroke-width="2"/>
<path d="M181.307 56.1549C181.195 54.8378 182.726 54.4899 183.385 55.6353L183.471 55.7832C183.935 56.5892 185.074 56.6539 185.626 55.9055C186.375 54.8914 187.974 55.4411 187.931 56.7008C187.836 59.4917 187.69 62.9369 187.515 64.3779C187.252 66.5382 185.064 67.3586 184.324 67.5757C184.165 67.6224 183.998 67.6149 183.839 67.5681C182.736 67.2434 182.953 65.2884 184.061 64.9798C185.587 64.5547 186.318 63.8774 184.581 62.7996C182.271 61.3664 181.508 58.5324 181.307 56.1549Z" fill="white"/>
<path d="M137.189 54.5218C137.144 53.931 136.393 53.8986 136.268 54.4778C136.157 54.9966 135.436 55.0463 135.243 54.552C135.013 53.9634 134.134 54.1554 134.199 54.7839C134.481 57.4943 134.843 60.8549 135.048 62.2797C135.317 64.1465 136.189 65.2983 136.646 65.7883C136.817 65.9719 137.073 66.0321 137.318 65.9785C138.108 65.8059 138.247 64.6332 137.578 64.1794C136.37 63.3603 135.318 62.2661 136.286 61.3073C137.389 60.214 137.375 56.9471 137.189 54.5218Z" fill="white"/>
</svg>
