<svg width="210" height="47" viewBox="0 0 210 47" fill="none" xmlns="http://www.w3.org/2000/svg">
<path d="M0.984375 37V33.9238L3.70898 33.3965V15.0273L0.984375 14.5V11.4062H20.8477V18.3145H16.9102L16.6816 15.3613H8.8418V21.7949H17.5078V25.75H8.8418V33.0625H17.1035L17.332 30.0039H21.2344V37H0.984375ZM31.0605 37.3691C29.5488 37.3691 28.248 36.9824 27.1582 36.209C26.0801 35.4238 25.2539 34.334 24.6797 32.9395C24.1055 31.5332 23.8184 29.8926 23.8184 28.0176V27.6484C23.8184 25.6445 24.1055 23.8926 24.6797 22.3926C25.2656 20.8926 26.0977 19.7266 27.1758 18.8945C28.2539 18.0508 29.543 17.6289 31.043 17.6289C32.0977 17.6289 33.0117 17.8398 33.7852 18.2617C34.5703 18.6719 35.25 19.2578 35.8242 20.0195V13.1992L33.082 12.6719V9.57812H40.957V33.3965L43.418 33.9238V37H36.5098L36.123 34.6797C35.5254 35.5586 34.8105 36.2266 33.9785 36.6836C33.1465 37.1406 32.1738 37.3691 31.0605 37.3691ZM32.5898 33.3789C34.0078 33.3789 35.0859 32.7871 35.8242 31.6035V23.5352C35.0859 22.2578 34.0195 21.6191 32.625 21.6191C31.3359 21.6191 30.3984 22.1758 29.8125 23.2891C29.2383 24.4023 28.9512 25.8555 28.9512 27.6484V28.0176C28.9512 29.6816 29.2324 30.9941 29.7949 31.9551C30.3574 32.9043 31.2891 33.3789 32.5898 33.3789ZM53.1211 37.3691C51.1055 37.3691 49.5293 36.7363 48.3926 35.4707C47.2559 34.1934 46.6875 32.2129 46.6875 29.5293V21.6016L44.5957 21.0742V17.9805H51.8203V29.5645C51.8203 30.9238 52.0547 31.9023 52.5234 32.5C53.0039 33.0859 53.7246 33.3789 54.6855 33.3789C56.2207 33.3789 57.375 32.8047 58.1484 31.6562V21.6016L55.8809 21.0742V17.9805H63.2812V33.3965L65.5664 33.9238V37H58.7812L58.4297 34.5918C57.1758 36.4434 55.4062 37.3691 53.1211 37.3691ZM76.4297 37.3691C74.6016 37.3691 73.0195 36.959 71.6836 36.1387C70.3594 35.3184 69.3398 34.1875 68.625 32.7461C67.9102 31.3047 67.5527 29.6465 67.5527 27.7715V27.2441C67.5527 25.3809 67.916 23.7285 68.6426 22.2871C69.3691 20.834 70.3945 19.6973 71.7188 18.877C73.043 18.0449 74.6016 17.6289 76.3945 17.6289C78.0938 17.6289 79.5645 17.8984 80.8066 18.4375C82.0488 18.9648 83.0566 19.5801 83.8301 20.2832L83.7949 25.7324H79.9277L79.2422 22.3398C78.9609 22.0586 78.6035 21.8301 78.1699 21.6543C77.7363 21.4785 77.2969 21.3906 76.8516 21.3906C75.4453 21.3906 74.3965 21.9121 73.7051 22.9551C73.0254 23.9863 72.6855 25.416 72.6855 27.2441V27.7715C72.6855 29.7285 73.0547 31.1641 73.793 32.0781C74.5312 32.9805 75.4219 33.4316 76.4648 33.4316C77.3672 33.4316 78.0879 33.1973 78.627 32.7285C79.1777 32.248 79.5586 31.5742 79.7695 30.707H84.1465L84.1992 30.8125C83.8945 32.8398 83.1445 34.4395 81.9492 35.6113C80.7539 36.7832 78.9141 37.3691 76.4297 37.3691ZM92.8652 37.3691C90.9785 37.3691 89.4785 36.8652 88.3652 35.8574C87.252 34.8379 86.6953 33.4551 86.6953 31.709C86.6953 29.9277 87.416 28.4746 88.8574 27.3496C90.3105 26.2246 92.4434 25.6621 95.2559 25.6621H97.7695V24.2559C97.7695 23.3418 97.5 22.6035 96.9609 22.041C96.4336 21.4668 95.6367 21.1797 94.5703 21.1797C94.0195 21.1797 93.5215 21.25 93.0762 21.3906C92.6426 21.5195 92.25 21.707 91.8984 21.9531L91.4941 24.4668H87.8027L87.7324 19.5273C88.7285 18.9648 89.8066 18.5078 90.9668 18.1562C92.127 17.8047 93.4219 17.6289 94.8516 17.6289C97.3359 17.6289 99.2988 18.209 100.74 19.3691C102.182 20.5293 102.902 22.1758 102.902 24.3086V32.1484C102.902 32.4062 102.902 32.6582 102.902 32.9043C102.914 33.1504 102.938 33.3965 102.973 33.6426L104.959 33.9238V37H98.5957C98.4668 36.6719 98.3379 36.3203 98.209 35.9453C98.0801 35.5703 97.9863 35.1953 97.9277 34.8203C97.3184 35.5938 96.5977 36.2148 95.7656 36.6836C94.9453 37.1406 93.9785 37.3691 92.8652 37.3691ZM94.2363 33.5723C94.9512 33.5723 95.625 33.4141 96.2578 33.0977C96.9023 32.7695 97.4062 32.3418 97.7695 31.8145V28.8086H95.2383C94.1133 28.8086 93.2578 29.0664 92.6719 29.582C92.0977 30.0977 91.8105 30.7188 91.8105 31.4453C91.8105 32.125 92.0215 32.6523 92.4434 33.0273C92.877 33.3906 93.4746 33.5723 94.2363 33.5723ZM106.664 37V33.9238L109.389 33.3965V15.0273L106.664 14.5V11.4062H118.846C120.803 11.4062 122.49 11.752 123.908 12.4434C125.326 13.123 126.416 14.0781 127.178 15.3086C127.939 16.5273 128.32 17.9512 128.32 19.5801C128.32 21.209 127.939 22.6387 127.178 23.8691C126.416 25.0879 125.326 26.0371 123.908 26.7168C122.49 27.3848 120.803 27.7188 118.846 27.7188H114.521V33.3965L117.264 33.9238V37H106.664ZM114.521 23.7637H118.846C120.275 23.7637 121.354 23.377 122.08 22.6035C122.818 21.8184 123.188 20.8223 123.188 19.6152C123.188 18.3848 122.818 17.3711 122.08 16.5742C121.354 15.7656 120.275 15.3613 118.846 15.3613H114.521V23.7637ZM138.92 37.3691C137.033 37.3691 135.416 36.959 134.068 36.1387C132.732 35.3184 131.707 34.1816 130.992 32.7285C130.277 31.2637 129.92 29.582 129.92 27.6836V27.3145C129.92 25.4277 130.277 23.7578 130.992 22.3047C131.707 20.8398 132.732 19.6973 134.068 18.877C135.416 18.0449 137.021 17.6289 138.885 17.6289C140.76 17.6289 142.365 18.0391 143.701 18.8594C145.049 19.6797 146.08 20.8223 146.795 22.2871C147.51 23.7402 147.867 25.416 147.867 27.3145V27.6836C147.867 29.582 147.51 31.2637 146.795 32.7285C146.08 34.1816 145.055 35.3184 143.719 36.1387C142.383 36.959 140.783 37.3691 138.92 37.3691ZM138.92 33.4316C140.244 33.4316 141.211 32.9043 141.82 31.8496C142.441 30.7949 142.752 29.4062 142.752 27.6836V27.3145C142.752 25.627 142.441 24.25 141.82 23.1836C141.199 22.1172 140.221 21.584 138.885 21.584C137.549 21.584 136.576 22.1172 135.967 23.1836C135.357 24.25 135.053 25.627 135.053 27.3145V27.6836C135.053 29.418 135.357 30.8125 135.967 31.8672C136.576 32.9102 137.561 33.4316 138.92 33.4316ZM149.977 37V33.9238L152.438 33.3965V21.6016L149.713 21.0742V17.9805H157.219L157.447 20.7051C158.08 19.7324 158.859 18.9766 159.785 18.4375C160.723 17.8984 161.789 17.6289 162.984 17.6289C164.859 17.6289 166.33 18.2324 167.396 19.4395C168.475 20.6465 169.014 22.5391 169.014 25.1172V33.3965L171.475 33.9238V37H161.666V33.9238L163.863 33.3965V25.1348C163.863 23.8574 163.605 22.9551 163.09 22.4277C162.586 21.8887 161.842 21.6191 160.857 21.6191C159.428 21.6191 158.332 22.2168 157.57 23.4121V33.3965L159.645 33.9238V37H149.977ZM180 37.3691C178.23 37.3691 176.865 36.8828 175.904 35.9102C174.955 34.9375 174.48 33.3965 174.48 31.2871V21.584H171.861V17.9805H174.48V13.3223H179.596V17.9805H183.094V21.584H179.596V31.2695C179.596 32.0078 179.748 32.5352 180.053 32.8516C180.369 33.168 180.797 33.3262 181.336 33.3262C181.617 33.3262 181.922 33.3086 182.25 33.2734C182.578 33.2266 182.859 33.1797 183.094 33.1328L183.533 36.8418C183.018 36.9941 182.449 37.1172 181.828 37.2109C181.207 37.3164 180.598 37.3691 180 37.3691Z" fill="white"/>
<path d="M182.575 25.575C183.212 26.2125 184.225 26.275 184.912 25.7C190.75 20.9 199.225 20.9 205.075 25.6875C205.775 26.2625 206.8 26.2125 207.437 25.575C208.175 24.8375 208.125 23.6125 207.312 22.95C200.175 17.1125 189.85 17.1125 182.7 22.95C181.887 23.6 181.825 24.825 182.575 25.575ZM192.275 35.275L194.112 37.1125C194.6 37.6 195.387 37.6 195.875 37.1125L197.712 35.275C198.3 34.6875 198.175 33.675 197.425 33.2875C195.9 32.5 194.075 32.5 192.537 33.2875C191.825 33.675 191.687 34.6875 192.275 35.275ZM187.612 30.6125C188.225 31.225 189.187 31.2875 189.9 30.775C192.95 28.6125 197.05 28.6125 200.1 30.775C200.812 31.275 201.775 31.225 202.387 30.6125L202.4 30.6C203.15 29.85 203.1 28.575 202.237 27.9625C197.937 24.85 192.075 24.85 187.762 27.9625C186.9 28.5875 186.85 29.85 187.612 30.6125Z" fill="white"/>
</svg>
