<svg width="250" height="360" viewBox="0 0 250 360" fill="none" xmlns="http://www.w3.org/2000/svg">
<path d="M12.6286 228.801C12.6286 217.755 21.5829 208.801 32.6286 208.801H190.476C201.522 208.801 210.476 217.755 210.476 228.801V334.152H12.6286V228.801Z" fill="#FF8E40"/>
<path d="M84.1904 176.21H126.286V211.35C126.286 219.634 119.57 226.35 111.286 226.35H99.1904C90.9061 226.35 84.1904 219.634 84.1904 211.35V176.21Z" fill="#94583F"/>
<path d="M49.1111 87.2106H161.365V131.364C161.365 162.362 136.236 187.491 105.238 187.491V187.491C74.24 187.491 49.1111 162.362 49.1111 131.364V87.2106Z" fill="#94583F"/>
<ellipse cx="40.6921" cy="87.2106" rx="28.0635" ry="25.0702" fill="black"/>
<ellipse cx="36.0635" cy="62.0702" rx="28.0635" ry="25.0702" fill="black"/>
<ellipse cx="56" cy="43" rx="28" ry="25" fill="black"/>
<ellipse cx="78.0635" cy="81.0702" rx="28.0635" ry="25.0702" fill="black"/>
<ellipse cx="82.0635" cy="28.0702" rx="28.0635" ry="25.0702" fill="black"/>
<ellipse cx="105.063" cy="62.0702" rx="28.0635" ry="25.0702" fill="black"/>
<ellipse cx="116.063" cy="25.0702" rx="28.0635" ry="25.0702" fill="black"/>
<ellipse cx="166.063" cy="58.0702" rx="28.0635" ry="25.0702" fill="black"/>
<ellipse cx="128.063" cy="81.0702" rx="28.0635" ry="25.0702" fill="black"/>
<ellipse cx="144.063" cy="43.0702" rx="28.0635" ry="25.0702" fill="black"/>
<ellipse cx="168.381" cy="78.436" rx="28.0635" ry="25.0702" fill="black"/>
<rect width="140.21" height="125.471" rx="5" transform="matrix(0.99696 0.0779194 -0.0974681 0.995239 110.217 221.126)" fill="#838383"/>
<rect y="334.152" width="238.54" height="25.0702" rx="5" fill="#838383"/>
<path d="M125.786 146.308C125.573 171.311 85.5003 172.319 85.7093 147.68" stroke="#CC4514" stroke-width="3"/>
<path d="M191.327 268.071L204.526 282.167L186.439 300.994L166.466 317.806L153.267 303.71L171.354 284.883L191.327 268.071Z" fill="#142ECC"/>
<path d="M152.41 290.54C151.738 289.656 167.468 290.822 167.468 290.822C167.468 290.822 160.129 297.716 159.605 298.198C159.081 298.68 157.879 294.297 157.879 294.297C157.879 294.297 153.081 291.424 152.41 290.54Z" fill="#CC4514"/>
<path d="M180.071 319.187C180.908 319.915 180.778 304.143 180.778 304.143C180.778 304.143 173.416 311.013 172.901 311.504C172.386 311.996 176.681 313.483 176.681 313.483C176.681 313.483 179.233 318.459 180.071 319.187Z" fill="#CC4514"/>
<circle cx="189.066" cy="283.416" r="5.51757" transform="rotate(46.8817 189.066 283.416)" fill="white"/>
<circle cx="178.594" cy="293.221" r="4.13818" transform="rotate(46.8817 178.594 293.221)" fill="white"/>
<path d="M157.596 320.442L150.323 312.675L153.267 303.71L166.466 317.806L157.596 320.442Z" fill="#CC4514"/>
<path d="M204.526 282.167L191.327 268.071C191.327 268.071 196.735 265.158 201.713 263.825C204.592 263.054 206.702 261.888 209.156 264.509C211.61 267.129 210.198 269.04 209.255 271.88C207.626 276.79 204.526 282.167 204.526 282.167Z" fill="#CC4514"/>
<path d="M185.092 279.576C185.092 279.576 181.348 283.65 185.133 287.288C188.917 290.926 192.637 287.633 192.637 287.633" stroke="black" stroke-width="3" stroke-linecap="round"/>
<path d="M175.766 290.201C175.766 290.201 172.959 293.256 175.796 295.983C178.633 298.71 181.423 296.242 181.423 296.242" stroke="black" stroke-width="3" stroke-linecap="round"/>
<path d="M143.851 325.944C140.41 326.709 150.295 312.545 150.295 312.545L157.644 320.392C157.644 320.392 147.291 325.179 143.851 325.944Z" fill="#FF8E40"/>
<path d="M148.002 321.994C146 322.439 151.751 314.2 151.751 314.2L156.026 318.765C156.026 318.765 150.003 321.549 148.002 321.994Z" fill="#CC4514"/>
</svg>
