<svg width="140" height="123" viewBox="0 0 140 123" fill="none" xmlns="http://www.w3.org/2000/svg">
<path d="M112.175 77.6024L97.3582 76.1276C93.7999 75.7717 90.2999 76.8396 87.7915 79.0263L77.0582 88.3833C60.5499 81.0604 47.0165 69.3133 38.6165 54.8709L49.4082 45.463C51.9165 43.2763 53.1415 40.2251 52.7332 37.123L51.0415 24.308C50.3415 19.1718 45.3832 15.3069 39.4332 15.3069H29.3415C22.7499 15.3069 17.2665 20.0871 17.6749 25.8336C20.7665 69.2624 60.6082 103.944 110.367 106.64C116.958 106.996 122.442 102.215 122.442 96.469V87.6714C122.5 82.5352 118.067 78.2126 112.175 77.6024Z" fill="white"/>
</svg>
