<svg width="300" height="300" viewBox="0 0 300 300" fill="none" xmlns="http://www.w3.org/2000/svg">
<path d="M25.75 125.75C32.125 132.125 42.25 132.75 49.125 127C107.5 79.0002 192.25 79.0002 250.75 126.875C257.75 132.625 268 132.125 274.375 125.75C281.75 118.375 281.25 106.125 273.125 99.5002C201.75 41.1252 98.5 41.1252 27 99.5002C18.875 106 18.25 118.25 25.75 125.75ZM122.75 222.75L141.125 241.125C146 246 153.875 246 158.75 241.125L177.125 222.75C183 216.875 181.75 206.75 174.25 202.875C159 195 140.75 195 125.375 202.875C118.25 206.75 116.875 216.875 122.75 222.75ZM76.125 176.125C82.25 182.25 91.875 182.875 99 177.75C129.5 156.125 170.5 156.125 201 177.75C208.125 182.75 217.75 182.25 223.875 176.125L224 176C231.5 168.5 231 155.75 222.375 149.625C179.375 118.5 120.75 118.5 77.625 149.625C69 155.875 68.5 168.5 76.125 176.125Z" fill="#FF8E40"/>
</svg>
